<svg width="68" height="37" viewBox="0 0 68 37" fill="none" xmlns="http://www.w3.org/2000/svg" class="sc-kdBSHD daroko"><path d="M4.55712 34.5366V35.0359H0.333313V30.5514H4.49584V31.0507H0.857928V32.5052H3.93984V33.0059H0.857928V34.5381L4.55712 34.5366Z" fill="black"></path><path d="M9.56565 33.8116L10.0649 34.0687C9.65383 34.7414 8.89157 35.1704 7.82292 35.1704C6.19378 35.1704 5.19537 34.2481 5.19537 32.7921C5.19537 31.3362 6.19378 30.4154 7.84085 30.4154C8.88709 30.4154 9.65085 30.8504 10.0619 31.5171L9.56266 31.7742C9.22039 31.1762 8.59564 30.9147 7.83488 30.9147C6.56893 30.9147 5.73194 31.5559 5.73194 32.7921C5.73194 34.0283 6.57192 34.6726 7.83787 34.6726C8.59863 34.6726 9.22936 34.414 9.56565 33.8116Z" fill="black"></path><path d="M10.8316 32.7921C10.8316 31.3317 11.8285 30.4154 13.4891 30.4154C15.1496 30.4154 16.1465 31.3317 16.1465 32.7921C16.1465 34.2526 15.1481 35.1704 13.4891 35.1704C11.83 35.1704 10.8316 34.2541 10.8316 32.7921ZM15.6144 32.7921C15.6144 31.5873 14.7789 30.9147 13.4935 30.9147C12.2082 30.9147 11.3727 31.5873 11.3727 32.7921C11.3727 33.9969 12.1977 34.6726 13.4891 34.6726C14.7804 34.6726 15.6099 33.9984 15.6099 32.7921H15.6144Z" fill="black"></path><path d="M21.7378 33.7353C21.7378 34.562 20.9203 35.1704 19.4959 35.1704C18.5607 35.189 17.6518 34.8604 16.9446 34.2481L17.3123 33.8445C17.913 34.4021 18.7097 34.6997 19.5288 34.6726C20.584 34.6726 21.2013 34.3333 21.2013 33.7757C21.2013 33.2181 20.5586 33.0971 19.3793 32.9939C18.2001 32.8908 17.0955 32.6292 17.0955 31.7443C17.0955 30.8982 18.1313 30.4184 19.2986 30.4184C20.1165 30.3995 20.9122 30.6851 21.5316 31.2196L21.1191 31.5783C20.6961 31.1478 20.0534 30.9236 19.3255 30.9176C18.5468 30.9176 17.6351 31.1359 17.6351 31.7248C17.6351 32.2824 18.4586 32.399 19.4884 32.4812C20.8142 32.5873 21.7378 32.8504 21.7378 33.7353Z" fill="black"></path><path d="M22.826 30.5499L24.6599 32.979L26.4818 30.5499H27.1066L24.9155 33.4663V35.0358H24.3924V33.4663L22.1953 30.5499H22.826Z" fill="black"></path><path d="M32.3004 33.7353C32.3004 34.562 31.4828 35.1703 30.0584 35.1703C29.1227 35.1892 28.2133 34.8606 27.5056 34.248L27.8748 33.8445C28.4757 34.4027 29.2731 34.7004 30.0928 34.6726C31.139 34.6726 31.7638 34.3332 31.7638 33.7757C31.7638 33.2181 31.1211 33.097 29.9419 32.9939C28.7626 32.8908 27.6596 32.6292 27.6596 31.7442C27.6596 30.8982 28.6953 30.4183 29.8611 30.4183C30.6791 30.3992 31.4749 30.6848 32.0941 31.2196L31.6831 31.5783C31.2586 31.1478 30.6159 30.9236 29.8895 30.9176C29.1093 30.9176 28.1991 31.1359 28.1991 31.7248C28.1991 32.2824 29.0227 32.399 30.051 32.4812C31.3767 32.5873 32.3004 32.8504 32.3004 33.7353Z" fill="black"></path><path d="M37.6063 31.0357H35.5452V35.0358H35.0206V31.0357H32.9625V30.5499H37.6063V31.0357Z" fill="black"></path><path d="M42.8375 34.5366V35.0359H38.6077V30.5514H42.7687V31.0507H39.1308V32.5052H42.2127V33.0059H39.1308V34.5381L42.8375 34.5366Z" fill="black"></path><path d="M49.4407 30.5499V35.0344H48.9176V31.3063L46.6966 34.0747H46.6592L44.4382 31.3123V35.0418H43.9255V30.5574H44.4995L46.6906 33.3004L48.8802 30.5574L49.4407 30.5499Z" fill="black"></path><path d="M8.40279 9.26086V13.4583H5.06679V27.6918H0.333313V9.47163C0.333313 4.5582 3.27473 0.9004 8.58215 1.51028V5.95734C6.32227 5.77796 5.10266 6.70474 5.06679 9.25638L8.40279 9.26086Z" fill="black"></path><path d="M19.3719 28.0865C14.208 28.0865 11.1589 24.6798 11.1589 19.8381V9.18462H15.8924V19.9816C15.8924 21.0205 16.2511 23.4959 19.3719 23.4959C21.4509 23.4959 22.959 22.025 22.959 19.9816V9.18462H27.6925V19.8381C27.6955 24.5363 24.3968 28.0865 19.3719 28.0865Z" fill="black"></path><path d="M31.2092 0.972137H35.9801V19.9099C35.9801 22.5273 37.1623 23.46 39.4939 23.3165V27.6201C34.0789 28.1941 31.2092 24.9668 31.2092 19.9099V0.972137Z" fill="black"></path><path d="M41.1799 0.972137H45.9493V19.9099C45.9493 22.5273 47.133 23.46 49.4631 23.3165V27.6201C44.0481 28.1941 41.1799 24.9668 41.1799 19.9099V0.972137Z" fill="black"></path><path d="M67.6094 28.7158C67.6094 33.701 64.3466 37.0015 59.3979 37.0015C55.346 37.0015 52.01 34.3467 51.3643 30.5454H56.2772C56.5641 31.9087 57.7837 32.5903 59.3979 32.5903C61.9791 32.5903 62.8759 30.7607 62.8759 29.0387V26.5812C61.6901 27.5715 60.1894 28.1054 58.6446 28.0865C54.1264 28.0865 51.1132 24.8233 51.1132 19.9816V9.18462H55.8407V19.9816C55.8407 21.0205 56.1994 23.6035 59.2784 23.6035C61.3932 23.6035 62.8655 22.0609 62.8655 19.9816V9.18462H67.5989L67.6094 28.7158Z" fill="black"></path></svg>